{
    "accessors": [
        {
            "bufferView": 0,
            "byteOffset": 0,
            "componentType": 5126,
            "count": 1024,
            "max": [
                5.064902305603027,
                7.760731220245361,
                1.4179153442382812
            ],
            "min": [
                -17.470298767089844,
                -1.0,
                -3.6115143299102783
            ],
            "name": "accessor_buffer_Cylinder.002_POSITION_0",
            "type": "VEC3"
        },
        {
            "bufferView": 6,
            "byteOffset": 0,
            "componentType": 5123,
            "count": 2880,
            "max": [
                481
            ],
            "min": [
                0
            ],
            "name": "accessor_buffer_Sphere_0",
            "type": "SCALAR"
        },
        {
            "bufferView": 2,
            "byteOffset": 0,
            "componentType": 5123,
            "count": 744,
            "max": [
                1013
            ],
            "min": [
                1
            ],
            "name": "accessor_buffer_Cylinder.002_0",
            "type": "SCALAR"
        },
        {
            "bufferView": 3,
            "byteOffset": 0,
            "componentType": 5123,
            "count": 5316,
            "max": [
                1023
            ],
            "min": [
                0
            ],
            "name": "accessor_buffer_Cylinder.002_1",
            "type": "SCALAR"
        },
        {
            "bufferView": 5,
            "byteOffset": 0,
            "componentType": 5126,
            "count": 482,
            "max": [
                1.0,
                1.0,
                1.0
            ],
            "min": [
                -1.0,
                -1.0,
                -1.0
            ],
            "name": "accessor_buffer_Sphere_NORMAL_0",
            "type": "VEC3"
        },
        {
            "bufferView": 1,
            "byteOffset": 0,
            "componentType": 5126,
            "count": 1024,
            "max": [
                0.9960325956344604,
                0.999603271484375,
                0.9864802956581116
            ],
            "min": [
                -0.9960325956344604,
                -0.999603271484375,
                -0.9864802956581116
            ],
            "name": "accessor_buffer_Cylinder.002_NORMAL_0",
            "type": "VEC3"
        },
        {
            "bufferView": 4,
            "byteOffset": 0,
            "componentType": 5126,
            "count": 482,
            "max": [
                0.9999998211860657,
                1.0,
                1.0
            ],
            "min": [
                -1.000000238418579,
                -1.0,
                -1.0000003576278687
            ],
            "name": "accessor_buffer_Sphere_POSITION_0",
            "type": "VEC3"
        }
    ],
    "asset": {
        "copyright": "",
        "generator": "blendergltf v1.2.0",
        "version": "2.0"
    },
    "bufferViews": [
        {
            "buffer": 0,
            "byteLength": 12288,
            "byteOffset": 0,
            "byteStride": 12,
            "name": "bufferView_buffer_Cylinder.002_POSITION_0",
            "target": 34962
        },
        {
            "buffer": 0,
            "byteLength": 12288,
            "byteOffset": 12288,
            "byteStride": 12,
            "name": "bufferView_buffer_Cylinder.002_NORMAL_0",
            "target": 34962
        },
        {
            "buffer": 0,
            "byteLength": 1492,
            "byteOffset": 24576,
            "name": "bufferView_buffer_Cylinder.002_0",
            "target": 34963
        },
        {
            "buffer": 0,
            "byteLength": 10636,
            "byteOffset": 26068,
            "name": "bufferView_buffer_Cylinder.002_1",
            "target": 34963
        },
        {
            "buffer": 0,
            "byteLength": 5784,
            "byteOffset": 36704,
            "byteStride": 12,
            "name": "bufferView_buffer_Sphere_POSITION_0",
            "target": 34962
        },
        {
            "buffer": 0,
            "byteLength": 5784,
            "byteOffset": 42488,
            "byteStride": 12,
            "name": "bufferView_buffer_Sphere_NORMAL_0",
            "target": 34962
        },
        {
            "buffer": 0,
            "byteLength": 5764,
            "byteOffset": 48272,
            "name": "bufferView_buffer_Sphere_0",
            "target": 34963
        }
    ],
    "buffers": [
        {
            "byteLength": 54036,
            "name": "buffer_oeilbleu",
            "uri": "buffer_oeilbleu.bin"
        }
    ],
    "cameras": [
        {
            "name": "Camera",
            "perspective": {
                "aspectRatio": 1.703595982340029,
                "yfov": 0.5033799409866333,
                "zfar": 100.0,
                "znear": 0.10000000149011612
            },
            "type": "perspective"
        }
    ],
    "materials": [
        {
            "alphaMode": "OPAQUE",
            "doubleSided": false,
            "emissiveFactor": [
                0.0,
                0.0,
                0.0
            ],
            "name": "Material.001",
            "pbrMetallicRoughness": {
                "baseColorFactor": [
                    0.03796716034412384,
                    0.0017064588610082865,
                    0.6951081156730652,
                    1.0
                ],
                "metallicFactor": 0.0,
                "roughnessFactor": 1.0
            }
        },
        {
            "alphaMode": "OPAQUE",
            "doubleSided": false,
            "emissiveFactor": [
                0.0,
                0.0,
                0.0
            ],
            "name": "Material.002",
            "pbrMetallicRoughness": {
                "baseColorFactor": [
                    0.0,
                    0.043137695640325546,
                    0.64000004529953,
                    1.0
                ],
                "metallicFactor": 0.0,
                "roughnessFactor": 1.0
            }
        },
        {
            "alphaMode": "OPAQUE",
            "doubleSided": false,
            "emissiveFactor": [
                0.0,
                0.0,
                0.0
            ],
            "name": "Material.003",
            "pbrMetallicRoughness": {
                "baseColorFactor": [
                    0.64000004529953,
                    0.64000004529953,
                    0.64000004529953,
                    1.0
                ],
                "metallicFactor": 0.0,
                "roughnessFactor": 1.0
            }
        }
    ],
    "meshes": [
        {
            "name": "Cylinder.002",
            "primitives": [
                {
                    "attributes": {
                        "NORMAL": 5,
                        "POSITION": 0
                    },
                    "indices": 2,
                    "material": 1,
                    "mode": 4
                },
                {
                    "attributes": {
                        "NORMAL": 5,
                        "POSITION": 0
                    },
                    "indices": 3,
                    "material": 0,
                    "mode": 4
                }
            ]
        },
        {
            "name": "Sphere",
            "primitives": [
                {
                    "attributes": {
                        "NORMAL": 4,
                        "POSITION": 6
                    },
                    "indices": 1,
                    "material": 2,
                    "mode": 4
                }
            ]
        }
    ],
    "nodes": [
        {
            "camera": 0,
            "name": "Camera",
            "rotation": [
                -0.09062843769788742,
                -0.8937962651252747,
                -0.2099730223417282,
                0.38578000664711
            ],
            "scale": [
                1.0,
                1.0,
                1.0
            ],
            "translation": [
                -7.481131553649902,
                5.34366512298584,
                -6.5076398849487305
            ]
        },
        {
            "mesh": 0,
            "name": "Cylinder.006",
            "rotation": [
                0.6657360196113586,
                -0.278594046831131,
                0.3498169481754303,
                0.5973349213600159
            ],
            "scale": [
                0.3351651728153229,
                0.9360140562057495,
                0.3388611674308777
            ],
            "translation": [
                3.8051393032073975,
                0.03712662309408188,
                -1.1442782878875732
            ]
        },
        {
            "name": "Lamp",
            "rotation": [
                -0.34203386306762695,
                -0.5232755541801453,
                -0.2841663062572479,
                0.7269423007965088
            ],
            "scale": [
                1.0,
                1.0,
                0.9999999403953552
            ],
            "translation": [
                -4.076245307922363,
                5.903861999511719,
                1.0054539442062378
            ]
        },
        {
            "mesh": 1,
            "name": "Sphere",
            "rotation": [
                0.0,
                0.0,
                0.0,
                1.0
            ],
            "scale": [
                1.0,
                1.0,
                1.0
            ],
            "translation": [
                0.0,
                0.0,
                0.0
            ]
        }
    ],
    "scene": 0,
    "scenes": [
        {
            "extras": {
                "active_camera": 0,
                "background_color": [
                    0.05087608844041824,
                    0.05087608844041824,
                    0.05087608844041824
                ],
                "frames_per_second": 24
            },
            "name": "Scene",
            "nodes": [
                1,
                3,
                2,
                0
            ]
        }
    ]
}
